<svg width="47" height="46" viewBox="0 0 47 46" fill="none" xmlns="http://www.w3.org/2000/svg">
<g clip-path="url(#clip0_53_332)">
<path fill-rule="evenodd" clip-rule="evenodd" d="M23.43 0C10.4738 0 0 10.5417 0 23.5831C0 34.0079 6.71093 42.8322 16.0208 45.9554C17.1847 46.1902 17.6111 45.448 17.6111 44.8236C17.6111 44.2769 17.5727 42.4029 17.5727 40.4503C11.0551 41.8562 9.69783 37.639 9.69783 37.639C8.6504 34.9059 7.09844 34.2034 7.09844 34.2034C4.96521 32.7587 7.25383 32.7587 7.25383 32.7587C9.62013 32.9149 10.8618 35.1795 10.8618 35.1795C12.9562 38.7713 16.3311 37.7564 17.6888 37.1316C17.8825 35.6088 18.5036 34.5546 19.1631 33.9691C13.9648 33.4224 8.49549 31.3921 8.49549 22.3335C8.49549 19.7565 9.4259 17.6482 10.9002 16.0085C10.6676 15.4229 9.85274 13.0017 11.1332 9.7611C11.1332 9.7611 13.1116 9.13627 17.5722 12.1819C19.482 11.6656 21.4515 11.403 23.43 11.4008C25.4083 11.4008 27.425 11.6744 29.2872 12.1819C33.7484 9.13627 35.7267 9.7611 35.7267 9.7611C37.0072 13.0017 36.1919 15.4229 35.9593 16.0085C37.4724 17.6482 38.3645 19.7565 38.3645 22.3335C38.3645 31.3921 32.8952 33.3831 27.6581 33.9691C28.5117 34.7108 29.2484 36.1162 29.2484 38.342C29.2484 41.5045 29.21 44.0426 29.21 44.8232C29.21 45.448 29.6369 46.1902 30.8004 45.9559C40.1102 42.8317 46.8211 34.0079 46.8211 23.5831C46.8595 10.5417 36.3473 0 23.43 0Z" fill="white"/>
</g>
<defs>
<clipPath id="clip0_53_332">
<rect width="47" height="46" fill="white"/>
</clipPath>
</defs>
</svg>
